<?xml version="1.0" encoding="utf-8" ?><svg xmlns="http://www.w3.org/2000/svg" xmlns:xlink="http://www.w3.org/1999/xlink" viewBox="264.4 261.4 503.3 503.3"><path fill="#FAF8F2" d="M652.729 281.414C664.666 279.183 664.237 278.599 664.972 290.258C664.371 294.006 666.193 299.544 665.802 301.272C663.222 312.669 665.022 324.568 664.744 336.244C664.639 340.651 663.068 349.718 664.848 353.243C666.159 354.16 665.42 353.914 667.206 353.762C669.017 350.997 669.835 322.017 669.943 317.033C669.989 314.908 669.795 306.499 670.236 304.742L670.529 303.295L670.172 302.466C671.821 301.425 677.714 300.163 678.707 302.268C679.753 304.483 679.902 307.916 680.913 310.68C680.481 311.985 680.39 312.058 679.63 313.302C678.045 314.126 678.126 316.499 677.673 318.29C677.245 328.587 677.294 340.158 677.024 350.7L685 346.273C685.164 336.079 685.244 330.684 684.975 320.367C687.891 320.29 690.8 320.299 693.709 320.193C693.593 325.868 693.285 334.264 693.863 339.744L694.337 341.86C697.735 342.962 706.998 333.955 711.771 336.668C725.862 344.678 712.623 354.846 706.241 360.514C705.587 374.038 706.537 387.624 706.002 400.992C705.204 420.939 705.89 440.103 706.077 460.001L706.338 511.202C706.466 524.745 705.598 538.967 705.606 552.559C705.618 572.085 705.45 591.677 705.475 611.195L705.791 695.966C705.925 712.013 706.416 729.182 706.241 745.129L628.328 744.493C586.935 744.396 545.87 744.523 504.485 742.531C492.002 741.93 478.959 743.059 466.496 743.402C439.45 744.295 412.391 744.674 385.331 744.538C363.981 744.519 339.948 747.886 323.348 731.054C317.656 725.282 315.417 719.922 316.259 711.839L316.327 711.144L316.372 710.727C318.078 706.274 318.625 705.048 321.4 701.117L321.942 700.334C322.2 698.897 322.703 697.388 322.305 695.926L321.762 695.627C320.131 695.941 319.843 698.371 318.835 699.927C316.658 698.194 316.49 698.465 315.785 696.175C315.006 685.794 314.902 667.526 315.372 657.167C317.508 610.136 315.175 563.327 316.472 516.307C316.678 508.845 315.762 500.528 315.692 492.936L315.303 370.136C315.348 361.474 315.452 352.592 315.332 343.987C315.133 329.688 313.009 317.879 321.678 305.354C330.052 293.256 340.53 287.198 354.789 284.349C360.477 283.062 375.402 283.846 381.752 283.927C391.429 284.051 402.102 283.69 411.694 284.065C422.867 284.067 434.039 283.824 445.201 283.336C452.807 282.983 461.778 282.153 469.279 282.183L566.358 282.157C576.747 282.215 587.747 283.143 598.038 283.009C616.2 282.772 634.594 282.242 652.729 281.414ZM676.083 685.205L676.001 693.167C661.384 692.642 642.608 691.11 628.328 692.035C589.689 694.539 551.582 694.41 512.914 694.651C488.395 694.804 463.137 697.936 438.532 698.325C421.007 698.907 403.108 698.443 385.544 698.535C371.141 698.61 356.573 699.503 342.246 699.543C343.549 699.908 344.704 700.206 346.017 700.505L569 702.886C605.136 703.233 642.557 701.823 678.717 703.252C678.454 706.502 678.457 708.758 678.494 712.001C675.197 711.964 666.589 711.64 663.719 711.935C656.259 711.197 647.022 711.307 639.468 711.43C598.752 712.094 558.427 708.17 517.749 711.447C504.627 712.504 489.61 711.265 476.22 711.658C438.881 713.073 401.526 714.009 364.163 714.465C355.993 714.56 346.694 715.074 338.704 715.006C337.783 715.295 336.867 715.602 335.958 715.928C336.903 715.967 337.847 716.014 338.791 716.069C349.633 715.852 360.679 716.604 371.534 717.046C383.067 717.478 394.605 717.74 406.145 717.833L546.347 719.509C554.875 719.597 564.593 720.705 572.93 720.344C603.491 719.023 633.903 719.429 664.476 719.68C670.305 719.728 679.405 720.288 684.965 719.509C684.564 707.051 684.867 693.137 684.947 680.603L685.037 620.378L684.839 503.653C684.732 493.778 683.476 483.301 683.458 473.329C683.45 468.941 684.916 464.318 684.901 459.995C684.854 445.976 684.779 431.941 684.799 417.922C684.818 404.012 685.226 390.188 684.939 376.277L676.866 382.039C677.469 396.044 675.781 413.362 676.234 427.892C676.483 435.895 678.999 459.431 677.716 466.064C676.606 466.105 677.197 466.129 675.935 465.975C674.965 468.964 675.998 522.535 676.011 529.312L675.878 635.099C675.886 651.532 675.656 668.862 676.083 685.205ZM698.072 577.651C697.901 574.522 697.943 572.092 698.024 568.98C698.141 565.558 698.397 562.197 698.525 558.785C697.721 545.588 701.286 533.543 698.658 518.41C698.058 514.405 698.304 504.433 698.163 499.855C697.55 479.981 698.993 461.77 697.986 441.818C698.356 437.13 698.133 429.281 698.082 424.424L698.032 394.767C698 388.934 697.673 382.135 698.076 376.46C698.156 374.496 698.008 371.117 697.978 369.061C695.971 370.401 695.339 370.669 693.889 372.518C693.22 374.412 693.467 387.559 693.461 390.445C691.735 404.382 692.557 427.992 692.433 442.828C691.987 475.431 691.904 508.038 692.182 540.642C692.271 579.918 691.815 619.193 690.813 658.457C690.547 667.907 689.64 677.409 689.315 686.921L690.659 688.3C692.281 696.793 691.377 715.749 691.335 725.513L691.542 727.112L691.493 727.615C688.459 728.484 688.003 727.724 685.246 727.405C678.005 726.567 668.048 726.962 660.884 728.1L660.798 728.291L660.421 728.235L660.398 728.294C660.462 728.342 660.525 728.39 660.589 728.437L661.224 728.295L661.516 728.529C664.687 728.486 668.714 728.207 671.809 728.804C672.699 728.975 677.16 728.708 676.735 730.408C677.212 730.019 663.548 730.922 662.946 730.899L662.591 731.322L662.241 731.239L662.476 730.9C661.805 731.107 661.949 730.997 661.791 731.17C662.033 731.281 662.275 731.393 662.518 731.504L662.316 731.451L662.514 731.071L662.941 731.533L663.757 731.594C668.905 732.008 673.978 732.825 679.148 733.241C682.607 733.52 685.862 733.385 689.228 734.052C691.09 734.299 693.699 734.301 695.627 734.326C696.842 734.665 697.018 734.743 698.236 734.827L698.283 733.068C699.023 730.53 698.957 721.108 698.56 718.607C698.452 709.707 698.672 702.761 698.002 693.838C698.184 692.464 698.122 692.032 698.023 690.656C698.467 681.205 697.531 667.628 698.171 659.257C698.401 657.838 698.992 648.439 699.095 646.509C698.763 646.897 698.523 647.336 698.188 647.576C697.843 647.065 697.684 642.971 697.587 641.992C697.668 629.854 697.262 615.774 696.986 603.483C697.31 602.34 697.209 600.924 698.338 600.65C698.313 599.346 697.959 596.741 697.745 595.392L697.793 595.455C697.916 595.262 697.154 598.519 697.072 598.8C697 596.945 697.196 594.413 697.287 592.507L697.599 588.739L698.072 577.651ZM692.618 360.852C692.295 361.085 685.277 367.261 688.488 366.726C692.598 366.042 697.236 361.829 699.857 358.624C697.362 357.679 697.06 362.488 692.618 360.852Z"/><path fill="#FAF8F2" d="M354.789 284.349C359.15 284.331 363.981 284.299 368.313 284.498C366.966 319.954 367.281 352.798 367.184 388.081L366.621 477.973C366.654 502.032 364.138 532.432 365.839 556.027C365.443 563.62 369.156 577.429 367.284 583.749L366.7 583.591C365.625 581.257 366.006 580.021 365.712 577.349L365.271 577.727C365.077 581.836 365.409 586.571 365.467 590.753C365.584 599.141 364.636 612.847 367.716 620.775C367.734 623.826 367.938 628.085 367.287 630.913L366.768 630.976L365.764 629.258C365.669 644.611 366.831 658.502 366.24 674.405C338.894 671.832 333.07 674.621 315.785 696.175C315.006 685.794 314.902 667.526 315.372 657.167C317.508 610.136 315.175 563.327 316.472 516.307C316.678 508.845 315.762 500.528 315.692 492.936L315.303 370.136C315.348 361.474 315.452 352.592 315.332 343.987C315.133 329.688 313.009 317.879 321.678 305.354C330.052 293.256 340.53 287.198 354.789 284.349Z"/><path fill="#2B2B2A" d="M354.789 284.349C360.477 283.062 375.402 283.846 381.752 283.927C391.429 284.051 402.102 283.69 411.694 284.065C401.354 284.865 386.482 284.49 375.811 284.507C376.323 298.069 377.067 312.3 377.244 325.799C377.413 338.65 376.142 352.381 376.481 365.313C376.814 377.985 378.141 390.022 377.15 402.74C377.053 403.989 376.963 408.311 376.655 409.326C376.592 412.363 376.463 415.607 376.471 418.625C376.883 422.245 377.397 426.868 374.002 428.752C373.704 434.767 373.657 441.249 373.286 447.127L374.618 448.608C373.348 452.583 374.299 483.212 374.499 489.741C374.599 493.009 373.29 504.284 374.284 506.673C375.137 509.611 374.255 518.663 374.629 522.765C374.668 533.826 374.061 544.833 373.906 555.885C373.687 574.953 373.681 594.022 373.887 613.09C373.938 624.59 373.746 637.093 374.087 648.513C374.729 650.49 374.449 654.834 374.346 656.921C374.157 658.477 374.109 659.991 373.906 661.475C371.741 664.956 374.015 669.122 372.233 672.866C372.765 673.943 372.678 673.752 373.888 673.748C375.487 674.492 383.941 673.72 386.425 673.954C396.544 674.91 406.521 675.02 416.647 674.076C422.427 673.537 425.449 674.506 431.028 675.481C433.877 675.978 439.13 673.888 442.278 674.504C449.934 675.227 457.477 676.467 465.138 676.917C499.229 675.953 533.352 676.768 567.454 676.438C576.759 676.348 586.153 675.056 595.477 674.998C617.064 674.865 638.621 675.473 660.214 675.638C660.396 668.064 660.503 660.488 660.535 652.912C659.925 651.221 659.784 651.194 659.733 649.482C659.514 646.198 659.005 641.415 658.95 638.446C658.73 611.048 660.891 583.765 659.993 556.384C659.615 544.841 659.169 533.214 658.946 521.676C658.387 518.124 658.764 515.355 658.145 512.063C657.687 510.282 657.941 500.426 658.761 498.829L659.061 499.77C659.365 502.376 661.268 500.791 662.139 499.506C662.116 494.677 662.072 478.909 661.546 474.488C661.618 471.809 661.867 466.43 661.057 464.014L660.344 463.74L658.501 463.482C658.264 457.694 659.899 441.431 660.251 434.126C660.692 424.974 660.268 409.547 661.158 401.662C662.196 400.065 663.161 399.771 664.85 398.882C665.819 396.543 666.437 394.369 668.593 393.069L669.436 393.488C670.294 395.347 670.027 396.889 669.964 398.968C669.059 404.158 669.976 407.993 669.501 412.518C669.741 417.823 670.043 424.879 669.561 430.126L668.892 458.707C667.376 464.806 668.885 489.972 668.387 497.51C668.189 500.505 668.863 504.443 668.04 507.721L666.918 508.06C667.559 509.636 667.514 509.747 667.692 511.493L666.466 511.631L666.46 528.169C666.067 547.644 666.007 566.275 667.076 585.746C667.304 589.898 666.702 598.545 667.923 602.005L669.061 603.474C668.688 613.102 668.517 622.736 668.551 632.371C668.662 643.473 671.202 672.084 669.333 684.739C669.223 685.486 664.563 686.304 663.375 686.298C624.087 686.104 584.715 687.273 545.476 684.811C542.709 684.638 539.669 684.773 536.881 684.505C518.383 681.523 500.749 685.867 482.324 685.121C476.008 684.865 469.387 685.184 463.039 685.237C438.353 685.455 413.937 686.721 389.258 685.554C386.651 685.431 382.8 685.024 380.268 685.155C356.091 686.409 340.424 679.513 321.942 700.334C322.2 698.897 322.703 697.388 322.305 695.926L321.762 695.627C320.131 695.941 319.843 698.371 318.835 699.927C316.658 698.194 316.49 698.465 315.785 696.175C333.07 674.621 338.894 671.832 366.24 674.405C366.831 658.502 365.669 644.611 365.764 629.258L366.768 630.976L367.287 630.913C367.938 628.085 367.734 623.826 367.716 620.775C364.636 612.847 365.584 599.141 365.467 590.753C365.409 586.571 365.077 581.836 365.271 577.727L365.712 577.349C366.006 580.021 365.625 581.257 366.7 583.591L367.284 583.749C369.156 577.429 365.443 563.62 365.839 556.027C364.138 532.432 366.654 502.032 366.621 477.973L367.184 388.081C367.281 352.798 366.966 319.954 368.313 284.498C363.981 284.299 359.15 284.331 354.789 284.349Z"/><path fill="#888486" d="M365.839 556.027C365.939 551.778 365.792 548.465 367.12 544.387L367.732 544.911C368.036 562.314 368.169 579.72 368.131 597.126C368.14 601.196 368.367 617.659 367.716 620.775C364.636 612.847 365.584 599.141 365.467 590.753C365.409 586.571 365.077 581.836 365.271 577.727L365.712 577.349C366.006 580.021 365.625 581.257 366.7 583.591L367.284 583.749C369.156 577.429 365.443 563.62 365.839 556.027Z"/><path fill="#EAE5E4" d="M373.286 447.127L374.618 448.608C373.348 452.583 374.299 483.212 374.499 489.741C374.599 493.009 373.29 504.284 374.284 506.673L373.692 509.055L373.339 508.671C372.385 494.558 372.317 481.064 372.553 466.906C372.624 462.606 372.489 450.976 373.286 447.127Z"/><path fill="#EAE5E4" d="M371.845 644.535L373.033 645.898L373.026 648.506C373.622 648.676 373.579 648.732 374.087 648.513C374.729 650.49 374.449 654.834 374.346 656.921C374.157 658.477 374.109 659.991 373.906 661.475C371.741 664.956 374.015 669.122 372.233 672.866C371.143 662.382 371.353 654.981 371.845 644.535Z"/><path fill="#888486" d="M373.026 648.506C373.622 648.676 373.579 648.732 374.087 648.513C374.729 650.49 374.449 654.834 374.346 656.921C373.532 655.205 373.033 650.466 373.026 648.506Z"/><path fill="#ACA19B" d="M668.209 428.413C668.064 428.525 667.937 428.657 667.781 428.689C666.473 426.924 666.883 402.781 667.645 399.264C667.985 397.694 669.175 398.764 669.964 398.968C669.059 404.158 669.976 407.993 669.501 412.518C667.886 416.197 668.309 423.986 668.209 428.413Z"/><path fill="#F4EFE4" d="M658.145 512.063C657.687 510.282 657.941 500.426 658.761 498.829L659.061 499.77C659.365 502.376 661.268 500.791 662.139 499.506C662.09 504.057 661.817 506.468 661.598 510.711L660.151 511.358C659.927 510.504 659.73 509.147 658.83 508.806C658.323 509.061 658.235 511.456 658.145 512.063Z"/><path fill="#BEBBBC" d="M374.803 410.619C374.804 411.902 374.454 419.554 376.471 418.625C376.883 422.245 377.397 426.868 374.002 428.752C373.919 425.085 373.556 413.366 374.803 410.619Z"/><path fill="#EAE5E4" d="M660.349 638.46C660.469 638.404 660.64 638.278 660.789 638.332C661.598 639.686 660.947 650.546 660.535 652.912C659.925 651.221 659.784 651.194 659.733 649.482C659.514 646.198 659.005 641.415 658.95 638.446L660.349 638.46Z"/><path fill="#625E5F" d="M658.95 638.446L660.349 638.46C659.664 641.896 660.742 647.51 659.733 649.482C659.514 646.198 659.005 641.415 658.95 638.446Z"/><path fill="#423B3A" d="M658.145 512.063C658.235 511.456 658.323 509.061 658.83 508.806C659.73 509.147 659.927 510.504 660.151 511.358C660.436 511.83 660.719 512.234 661.029 512.689C657.867 514.912 659.42 517.576 658.946 521.676C658.387 518.124 658.764 515.355 658.145 512.063Z"/><path fill="#888486" d="M371.845 644.535C371.874 643.167 371.672 642.033 372.29 641.007L372.119 640.876C372.175 640.844 372.231 640.813 372.287 640.782C372.951 641.154 372.999 645.068 373.033 645.898L371.845 644.535Z"/><path fill="#BEBBBC" d="M666.918 508.06C667.559 509.636 667.514 509.747 667.692 511.493L666.466 511.631C666.518 509.918 666.445 509.635 666.918 508.06Z"/><path fill="#EAE5E4" d="M661.598 510.711C661.464 511.566 661.323 511.865 661.029 512.689C660.719 512.234 660.436 511.83 660.151 511.358L661.598 510.711Z"/><path fill="#241F1F" d="M652.729 281.414C664.666 279.183 664.237 278.599 664.972 290.258C664.371 294.006 666.193 299.544 665.802 301.272C663.222 312.669 665.022 324.568 664.744 336.244C664.639 340.651 663.068 349.718 664.848 353.243C666.159 354.16 665.42 353.914 667.206 353.762C669.017 350.997 669.835 322.017 669.943 317.033C669.989 314.908 669.795 306.499 670.236 304.742C671.081 313.308 670.329 344.701 669.605 353.01L663.764 356.695C663.345 354.592 662.52 351.491 662.569 349.408C663.099 326.722 663.186 303.621 663.939 280.979C660.206 281.201 656.468 281.346 652.729 281.414Z"/><path fill="#EAE5E4" d="M667.938 527.316C667.621 529.198 667.742 547.04 668.395 548.16C668.571 548.254 668.443 548.208 668.849 548.262L668.632 551.427C668.366 554.839 668.891 559.476 669.028 563.093C668.779 567.897 668.791 571.202 668.406 576.293C668.716 579.408 668.865 582.659 669.35 585.722L669.115 586.588C668.35 589.116 667.712 599.292 667.923 602.005C666.702 598.545 667.304 589.898 667.076 585.746C666.007 566.275 666.067 547.644 666.46 528.169L667.938 527.316Z"/><path fill="#797477" d="M668.406 576.293C667.686 573.117 667.475 563.859 668.215 561.074L668.249 561.075C668.487 561.424 668.859 562.671 669.028 563.093C668.779 567.897 668.791 571.202 668.406 576.293Z"/><path fill="#797477" d="M374.618 448.608C376.185 458.667 374.846 478.058 374.878 488.827C374.901 496.482 375.646 516.435 374.629 522.765C374.255 518.663 375.137 509.611 374.284 506.673C373.29 504.284 374.599 493.009 374.499 489.741C374.299 483.212 373.348 452.583 374.618 448.608Z"/><path fill="#2B2B2A" d="M670.172 302.466C671.821 301.425 677.714 300.163 678.707 302.268C679.753 304.483 679.902 307.916 680.913 310.68C680.481 311.985 680.39 312.058 679.63 313.302C678.045 314.126 678.126 316.499 677.673 318.29C677.8 313.198 677.983 308.108 678.224 303.02C675.553 303.071 673.206 303.097 670.529 303.295L670.172 302.466Z"/><path fill="#EAE5E4" d="M661.546 474.488C662.072 478.909 662.116 494.677 662.139 499.506C661.268 500.791 659.365 502.376 659.061 499.77C661.343 496.333 660.455 485.997 660.554 481.555C661.854 480.955 661.305 476.469 661.546 474.488Z"/><path fill="#423B3A" d="M666.918 508.06L668.04 507.721C668.863 504.443 668.189 500.505 668.387 497.51C668.885 489.972 667.376 464.806 668.892 458.707C668.789 476.045 668.798 493.383 668.919 510.721C668.413 512.909 668.383 513.59 668.222 515.855L667.692 511.493C667.514 509.747 667.559 509.636 666.918 508.06Z"/><path fill="#251F1D" d="M658.761 498.829C659.28 493.723 658.58 488.374 659.094 483.232C659.206 482.113 658.744 481.394 659.997 481.517L660.554 481.555C660.455 485.997 661.343 496.333 659.061 499.77L658.761 498.829Z"/><path fill="#797477" d="M667.938 527.316C668.928 527.283 668.395 527.911 668.492 528.747C669.249 535.294 669.016 541.682 668.849 548.262C668.443 548.208 668.571 548.254 668.395 548.16C667.742 547.04 667.621 529.198 667.938 527.316Z"/><path fill="#423B3A" d="M669.35 585.722C669.546 592.424 669.242 596.848 669.061 603.474L667.923 602.005C667.712 599.292 668.35 589.116 669.115 586.588L669.35 585.722Z"/><path fill="#888486" d="M373.906 661.475C373.879 665.438 374.184 669.866 373.888 673.748C372.678 673.752 372.765 673.943 372.233 672.866C374.015 669.122 371.741 664.956 373.906 661.475Z"/><path fill="#BEBBBC" d="M659.599 465.638C657.643 473.734 659.142 472.293 658.802 479.763C658.444 477.028 657.491 467.714 658.303 465.857C658.736 465.791 659.168 465.718 659.599 465.638Z"/><path fill="#BEBBBC" d="M668.222 515.855C668.383 513.59 668.413 512.909 668.919 510.721C668.959 511.456 669.366 515.805 668.465 516.138C668.384 516.044 668.303 515.949 668.222 515.855Z"/><path fill="#423B3A" d="M658.501 463.482L660.344 463.74C660.066 464.29 659.817 465.04 659.599 465.638C659.168 465.718 658.736 465.791 658.303 465.857L658.501 463.482Z"/><path fill="#2F5FD0" d="M617.965 395.183C618.009 395.142 618.052 395.101 618.095 395.06C619.383 392.086 628.805 383.426 631.409 382.634L633.367 384.196C635.444 384.022 652.123 371.499 655.708 369.41C672.655 359.534 690.242 351.43 707.832 342.823C708.932 342.285 709.981 342.89 710.953 343.335C712.149 345.187 711.79 344.189 711.942 346.489C711.133 348.8 702.169 356.702 699.857 358.624C697.362 357.679 697.06 362.488 692.618 360.852L701.472 351.554C698.065 352.662 690.316 355.387 687.36 356.845C676.996 361.957 641.358 380.71 635.237 388.891C640.078 386.216 644.605 383.109 649.257 380.129C658.213 374.392 668.117 369.071 677.788 364.586L678.564 366.042C676.225 369.145 673.991 372.47 671.845 375.716C665.546 385.241 657.601 393.863 649.754 402.128C650.62 403.676 651.487 404.778 651.465 406.506C650.184 409.786 638.462 412.509 634.852 415.311C620.495 426.456 605.438 442.402 594.222 456.526C568.96 488.336 549.559 525.687 534.026 563.101C533.158 565.215 533.14 565.548 532.923 567.736C532.293 574.084 526.925 582.473 524.005 588.777C523.531 590.133 522.839 593.241 521.582 590.899C519.251 591.64 517.787 590.731 515.379 589.897C512.554 592.501 511.922 592.35 508.076 591.105C505.135 590.154 502.319 589.344 499.333 588.545C499.907 583.249 503.068 575.508 502.88 570.859C501.833 550.463 495.515 528.942 486.974 510.481C480.119 495.665 464.492 491.401 458.226 476.562C464.086 475.37 476.457 473.208 481.895 473.518C503.709 490.035 508.684 497.549 519.54 522.036C523.243 515.019 526.944 506.652 530.638 499.386C544.275 472.566 559.705 448.821 580.902 427.335C583.9 424.297 587.817 418.76 591.486 416.857L591.849 416.918C594.438 413.347 607.076 402.384 610.759 400.2L611.119 399.754C613.451 397.201 614.692 395.956 617.965 395.183Z"/><path fill="#EAE5E4" d="M611.119 399.754C613.451 397.201 614.692 395.956 617.965 395.183C617.61 395.584 617.215 395.92 616.817 396.282C614.025 399.813 610.009 403.897 606.559 407.055C591.833 420.533 578.84 434.887 566.734 450.752C564.222 454.044 551.109 472.576 548.965 474.178C552.156 465.554 567.785 446.666 573.887 438.876C577.674 434.041 590.06 421.91 591.486 416.857L591.849 416.918C594.438 413.347 607.076 402.384 610.759 400.2L611.119 399.754Z"/><path fill="#626BA1" d="M591.849 416.918C594.438 413.347 607.076 402.384 610.759 400.2C608.853 403.174 604.268 406.125 601.65 408.689C598.497 411.777 596.078 415.639 592.71 418.334C592.243 418.707 591.885 417.034 591.849 416.918Z"/><path fill="#888486" d="M611.119 399.754C613.451 397.201 614.692 395.956 617.965 395.183C617.61 395.584 617.215 395.92 616.817 396.282C614.166 397.735 613.829 398.707 611.119 399.754Z"/><path fill="#626BA1" d="M523.628 588.588L524.005 588.777C523.531 590.133 522.839 593.241 521.582 590.899C520.925 590.388 520.643 590.428 521.055 589.616C521.91 589.267 522.767 588.924 523.628 588.588Z"/><path fill="#CECEEA" d="M521.055 589.616C520.176 585.496 519.388 586.15 523.628 588.588C522.767 588.924 521.91 589.267 521.055 589.616Z"/><path fill="#FAF8F2" d="M543.592 525.853C546.214 519.406 549.885 513.031 553.101 506.836C554.094 504.924 557.264 500.018 557.908 498.177C558.521 495.501 560.213 493.35 561.439 490.965C561.589 490.672 560.763 490.278 560.587 490.03C560.568 490.535 568.581 477.647 568.996 477.004C569.481 476.253 569.958 474.883 570.723 476.374L570.979 476.851L572.136 478.028C568.883 483.663 564.39 489.874 561.36 495.909C560.705 497.215 559.156 498.367 558.78 499.119C555.955 504.782 549.831 519.307 545.711 523.637L543.592 525.853Z"/><path fill="#EAE5E4" d="M484.927 499.442C491.939 504.586 502.181 532.034 502.332 540.727C500.44 536.679 499.282 531.137 496.943 526.499C495.112 522.867 494.09 517.057 492.13 512.774C489.782 507.641 487.509 504.233 484.927 499.442Z"/><path fill="#EAE5E4" d="M582.485 460.828L583.051 461.577C579.351 466.986 575.894 472.684 572.136 478.028L570.979 476.851C572.496 474.613 572.011 472.694 572.799 472.15C576.736 469.435 579.562 464.649 582.485 460.828Z"/><path fill="#A4A3CF" d="M582.485 460.828C584.419 458.054 584.982 458.893 583.051 461.577L582.485 460.828Z"/><path fill="#CECEEA" d="M544.041 480.164C544.745 480.646 544.458 480.849 543.863 481.312C542.862 480.846 543.135 480.798 544.041 480.164Z"/><path fill="#2B2B2A" d="M676.866 382.039L684.939 376.277C685.226 390.188 684.818 404.012 684.799 417.922C684.779 431.941 684.854 445.976 684.901 459.995C684.916 464.318 683.45 468.941 683.458 473.329C683.476 483.301 684.732 493.778 684.839 503.653L685.037 620.378L684.947 680.603C684.867 693.137 684.564 707.051 684.965 719.509C683.929 719.391 682.893 719.28 681.855 719.176C683.371 717.141 684.135 714.223 682.021 712.302C678.555 712.548 676.101 718.127 671.632 714.585C666.645 710.632 655.61 713.689 649.864 712.359C653.309 711.612 659.52 712.495 663.719 711.935C666.589 711.64 675.197 711.964 678.494 712.001C678.457 708.758 678.454 706.502 678.717 703.252C642.557 701.823 605.136 703.233 569 702.886L346.017 700.505C344.704 700.206 343.549 699.908 342.246 699.543C356.573 699.503 371.141 698.61 385.544 698.535C403.108 698.443 421.007 698.907 438.532 698.325C463.137 697.936 488.395 694.804 512.914 694.651C551.582 694.41 589.689 694.539 628.328 692.035C642.608 691.11 661.384 692.642 676.001 693.167L676.083 685.205C675.656 668.862 675.886 651.532 675.878 635.099L676.011 529.312C675.998 522.535 674.965 468.964 675.935 465.975C677.197 466.129 676.606 466.105 677.716 466.064C678.999 459.431 676.483 435.895 676.234 427.892C675.781 413.362 677.469 396.044 676.866 382.039ZM678.883 688.611C679.893 688.29 680.587 688.329 681.655 688.256C681.769 688.128 681.91 688.02 681.996 687.871C683.614 685.08 683.959 561.608 682.975 552.863C683.305 550.681 683.078 542.579 683.113 540.015C683.248 530.317 683.312 520.589 683.089 510.893C684.078 508.651 683.07 482.018 682.996 478.615C683.245 467.157 683.113 454.452 682.907 443.001C682.807 437.448 683.748 425.363 682.992 420.681C683.889 417.387 683.807 411.925 682.561 408.721L682.431 408.294C683.481 403.306 682.712 396.525 683.473 391.359C683.742 389.53 683.341 386.122 683.906 384.498C685.077 381.544 684.027 377.739 680.7 380.699C678.372 382.77 679.152 389.758 678.979 392.821C677.215 400.385 677.068 423.465 677.452 431.745C678.047 444.574 680.554 452.475 678.87 466.115C677.417 472.109 678.175 488.721 678.076 495.575C677.961 503.613 677.372 513.607 677.668 521.447L678.164 623.298C678.133 630.198 675.823 686.147 678.883 688.611Z"/><path fill="#241F1F" fill-opacity="0.63921571" d="M680.835 520.082L681.684 519.399C683.09 522.591 680.716 547.639 682.975 552.863C683.959 561.608 683.614 685.08 681.996 687.871C681.91 688.02 681.769 688.128 681.655 688.256C680.587 688.329 679.893 688.29 678.883 688.611C675.823 686.147 678.133 630.198 678.164 623.298L677.668 521.447C679.885 524.538 678.257 569.729 680.066 578.47C680.711 575.92 680.741 562.043 680.748 558.78C680.693 545.881 680.721 532.981 680.835 520.082Z"/><path fill="#241F1F" fill-opacity="0.72941178" d="M678.87 466.115C680.554 452.475 678.047 444.574 677.452 431.745C677.068 423.465 677.215 400.385 678.979 392.821C679.535 397.679 678.924 402.545 679.442 407.261C679.468 407.493 682.217 408.226 682.431 408.294L682.561 408.721C682.332 412.544 681.946 416.985 682.992 420.681C683.748 425.363 682.807 437.448 682.907 443.001C683.113 454.452 683.245 467.157 682.996 478.615C682.016 474.042 682.332 470.352 681.317 466.782C680.366 466.425 679.861 466.344 678.87 466.115Z"/><path fill="#241F1F" fill-opacity="0.65490198" d="M678.87 466.115C679.861 466.344 680.366 466.425 681.317 466.782C682.332 470.352 682.016 474.042 682.996 478.615C683.07 482.018 684.078 508.651 683.089 510.893C682.43 506.791 683.901 500.115 682.101 496.859C679.352 499.084 678.473 517.083 679.544 520.051L680.835 520.082C680.721 532.981 680.693 545.881 680.748 558.78C680.741 562.043 680.711 575.92 680.066 578.47C678.257 569.729 679.885 524.538 677.668 521.447C677.372 513.607 677.961 503.613 678.076 495.575C678.175 488.721 677.417 472.109 678.87 466.115Z"/><path fill="#241F1F" fill-opacity="0.70588237" d="M678.979 392.821C679.152 389.758 678.372 382.77 680.7 380.699C684.027 377.739 685.077 381.544 683.906 384.498C683.341 386.122 683.742 389.53 683.473 391.359C682.712 396.525 683.481 403.306 682.431 408.294C682.217 408.226 679.468 407.493 679.442 407.261C678.924 402.545 679.535 397.679 678.979 392.821Z"/><path fill="#241F1F" fill-opacity="0.54509807" d="M680.835 520.082L679.544 520.051C678.473 517.083 679.352 499.084 682.101 496.859C683.901 500.115 682.43 506.791 683.089 510.893C683.312 520.589 683.248 530.317 683.113 540.015C683.078 542.579 683.305 550.681 682.975 552.863C680.716 547.639 683.09 522.591 681.684 519.399L680.835 520.082Z"/><path fill="#BEBBBC" fill-opacity="0.98039216" d="M682.561 408.721C683.807 411.925 683.889 417.387 682.992 420.681C681.946 416.985 682.332 412.544 682.561 408.721Z"/><path fill="#251F1D" d="M676.866 382.039L684.939 376.277C685.226 390.188 684.818 404.012 684.799 417.922C684.779 431.941 684.854 445.976 684.901 459.995C684.916 464.318 683.45 468.941 683.458 473.329C683.476 483.301 684.732 493.778 684.839 503.653L685.037 620.378L684.947 680.603C684.867 693.137 684.564 707.051 684.965 719.509C683.929 719.391 682.893 719.28 681.855 719.176C683.371 717.141 684.135 714.223 682.021 712.302C678.555 712.548 676.101 718.127 671.632 714.585C666.645 710.632 655.61 713.689 649.864 712.359C653.309 711.612 659.52 712.495 663.719 711.935C666.589 711.64 675.197 711.964 678.494 712.001C678.457 708.758 678.454 706.502 678.717 703.252L678.747 703.194C679.888 703.472 680.699 709.498 683.195 710.882C683.802 709.553 683.56 702.484 683.305 700.746C682.759 700.382 682.26 700.126 681.661 699.872C680.997 698.224 681.627 690.661 681.655 688.256C681.769 688.128 681.91 688.02 681.996 687.871C683.614 685.08 683.959 561.608 682.975 552.863C683.305 550.681 683.078 542.579 683.113 540.015C683.248 530.317 683.312 520.589 683.089 510.893C684.078 508.651 683.07 482.018 682.996 478.615C683.245 467.157 683.113 454.452 682.907 443.001C682.807 437.448 683.748 425.363 682.992 420.681C683.889 417.387 683.807 411.925 682.561 408.721L682.431 408.294C683.481 403.306 682.712 396.525 683.473 391.359C683.742 389.53 683.341 386.122 683.906 384.498C685.077 381.544 684.027 377.739 680.7 380.699C678.372 382.77 679.152 389.758 678.979 392.821C677.215 400.385 677.068 423.465 677.452 431.745C678.047 444.574 680.554 452.475 678.87 466.115C677.417 472.109 678.175 488.721 678.076 495.575C677.961 503.613 677.372 513.607 677.668 521.447L678.164 623.298C678.133 630.198 675.823 686.147 678.883 688.611C679.25 691.235 678.765 692.39 677.861 694.808L677.608 695.469L678.699 696.502L677.505 696.806C675.251 695.267 677.067 689.035 676.083 685.205C675.656 668.862 675.886 651.532 675.878 635.099L676.011 529.312C675.998 522.535 674.965 468.964 675.935 465.975C677.197 466.129 676.606 466.105 677.716 466.064C678.999 459.431 676.483 435.895 676.234 427.892C675.781 413.362 677.469 396.044 676.866 382.039Z"/><defs><linearGradient id="gradient_0" gradientUnits="userSpaceOnUse" x1="509.5192" y1="727.83441" x2="508.21243" y2="705.18109"><stop offset="0" stop-color="#2F2524" stop-opacity="0.94117647"/><stop offset="1" stop-color="#302829"/></linearGradient></defs><path fill="url(#gradient_0)" d="M338.704 715.006C346.694 715.074 355.993 714.56 364.163 714.465C401.526 714.009 438.881 713.073 476.22 711.658C489.61 711.265 504.627 712.504 517.749 711.447C558.427 708.17 598.752 712.094 639.468 711.43C647.022 711.307 656.259 711.197 663.719 711.935C659.52 712.495 653.309 711.612 649.864 712.359C655.61 713.689 666.645 710.632 671.632 714.585C676.101 718.127 678.555 712.548 682.021 712.302C684.135 714.223 683.371 717.141 681.855 719.176C682.893 719.28 683.929 719.391 684.965 719.509C679.405 720.288 670.305 719.728 664.476 719.68C633.903 719.429 603.491 719.023 572.93 720.344C564.593 720.705 554.875 719.597 546.347 719.509L406.145 717.833C394.605 717.74 383.067 717.478 371.534 717.046C360.679 716.604 349.633 715.852 338.791 716.069C337.847 716.014 336.903 715.967 335.958 715.928C336.867 715.602 337.783 715.295 338.704 715.006Z"/><path fill="#2B2B2A" d="M691.041 725.514L691.335 725.513L691.542 727.112L691.493 727.615C688.459 728.484 688.003 727.724 685.246 727.405C678.005 726.567 668.048 726.962 660.884 728.1L660.798 728.291L660.421 728.235L660.398 728.294C660.462 728.342 660.525 728.39 660.589 728.437L661.224 728.295L661.516 728.529C664.687 728.486 668.714 728.207 671.809 728.804C672.699 728.975 677.16 728.708 676.735 730.408C677.212 730.019 663.548 730.922 662.946 730.899L662.591 731.322L662.241 731.239L662.476 730.9C661.805 731.107 661.949 730.997 661.791 731.17C662.033 731.281 662.275 731.393 662.518 731.504L662.316 731.451L662.514 731.071L662.941 731.533L663.757 731.594C668.905 732.008 673.978 732.825 679.148 733.241C682.607 733.52 685.862 733.385 689.228 734.052C684.222 734.399 677.777 734.167 672.496 734.368C645.284 735.404 618.066 734.376 590.812 734.483C509.766 735.313 428.712 734.663 347.689 732.532C348.965 732.135 350.1 731.798 351.391 731.459C357.514 731.697 367.576 731.074 374.239 731.028C403.677 730.743 433.105 729.789 462.5 728.166C467.525 727.93 472.66 727.713 477.668 727.353C511.716 724.906 545.563 728.077 579.687 727.603C599.342 727.996 618.817 725.868 638.443 725.458C655.811 725.095 673.713 726.476 691.041 725.514Z"/><path fill="#2B2B2A" d="M558.51 351.083C570.889 351.227 584.379 348.527 595.769 349.189L590.277 350.39C595.728 350.797 602.115 350.946 607.372 351.602C608.391 352.993 609.666 354.24 609.598 355.827C606.295 357.409 604.389 353.929 603.212 359.343C598.327 361.951 581.76 359.98 575.908 359.521C573.725 359.35 569.589 359.681 567.31 359.809C568.734 359.877 570.771 359.819 571.998 360.412C569.058 361.355 567.073 360.223 564.199 360.672C545.948 363.522 527.725 361.65 509.213 362.04L508.809 361.639L509.395 360.821C500.045 360.741 478.861 365.154 469.997 363.776C471.236 363.261 471.221 363.34 472.138 362.388L471.795 361.766C468.302 361.1 464.38 361.776 460.945 362.533C459.989 362.826 459.893 363.095 459.085 363.874L458.976 363.978C456.621 363.313 454.383 363.58 451.912 363.666L448.792 363.428L448.786 363.071L451.952 361.992C450.804 360.363 449.691 361.09 446.87 360.566L444.47 360.56C441.565 363.582 433.073 361.571 429.136 360.775L426.711 354.498L429.069 351.649C436.673 351.713 441.25 349.832 447.924 349.926C465.479 350.172 483.193 350.476 500.738 351.025C502.826 350.93 508.492 349.782 509.756 351.419L509.68 353.526L519.584 353.381C519.791 351.237 518.123 352.664 518.783 351.014C519.766 350.65 520.136 350.808 521.206 351.096C524.582 350.072 537.297 350.557 541.672 350.533C547.591 349.444 552.708 350.305 558.51 351.083Z"/><path fill="#EAE5E4" d="M541.672 350.533C547.591 349.444 552.708 350.305 558.51 351.083C543.808 352.521 534.68 353.37 519.584 353.381C519.791 351.237 518.123 352.664 518.783 351.014C519.766 350.65 520.136 350.808 521.206 351.096C524.582 350.072 537.297 350.557 541.672 350.533Z"/><path fill="#423B3A" d="M521.206 351.096C524.582 350.072 537.297 350.557 541.672 350.533C538.79 352.232 524.636 352.21 521.206 351.096Z"/><path fill="#241F1F" d="M500.738 351.025C502.826 350.93 508.492 349.782 509.756 351.419C507.278 352.39 503.737 352.519 501.089 352.453C500.494 352.377 500.509 352.363 499.934 352.462C499.9 351.524 499.94 351.549 500.738 351.025Z"/><path fill="#BEBBBC" d="M501.089 352.453C503.737 352.519 507.278 352.39 509.756 351.419L509.68 353.526C506.509 353.596 503.679 353.807 500.501 353.552L499.934 352.462C500.509 352.363 500.494 352.377 501.089 352.453Z"/><path fill="#BEBBBC" d="M446.87 360.566C447.911 360.531 453.924 360.243 454.592 360.776C454.652 361.332 452.339 361.863 451.952 361.992C450.804 360.363 449.691 361.09 446.87 360.566Z"/><path fill="#2B2B2A" d="M438.205 616.388C435.908 613.57 430.624 609.472 433.745 605.765C441.875 602.863 458.238 604.358 467.498 604.44C479.881 604.549 498.334 602.741 510.247 604.41C510.664 604.342 511.098 604.231 511.515 604.268C511.618 604.536 511.353 604.695 511.102 605.057L511.441 606.558L514.255 606.561C516.191 606.404 518.546 607.084 519.073 605.477C521.738 603.815 534.206 604.347 537.528 604.825C537.418 605.438 537.313 606.051 537.212 606.665C539.326 606.39 541.685 605.367 543.854 605.212C550.77 604.719 562.774 604.145 569.477 604.913C569.871 606.141 570.203 605.902 571.471 606.26C581.622 605.166 588.455 604.626 598.617 604.222C601.157 606.913 603.574 608.843 604.053 612.485C603.68 613.469 603.719 613.984 602.474 614.382C593.642 617.202 578.348 616.02 569.401 616.015L523.547 615.923C523.32 615.952 519.886 616.678 520.199 615.316C520.264 615.033 520.966 614.184 520.375 613.99C519.833 613.814 517.92 613.65 517.445 613.918C516.451 614.48 515.396 614.141 514.518 614.466C514.458 614.547 514.398 614.629 514.338 614.71C514.511 614.972 514.892 615.019 515.145 615.198C514.726 615.911 503.694 616.129 503.009 615.836C502.454 614.957 504.263 614.258 501.592 613.705C498.539 613.922 496.185 614.986 493.805 615.131C486.904 615.549 477.033 615.934 470.28 615.358L470.362 614.883C472.045 614.791 471.737 615.076 472.942 614.308C469.895 613.565 445.193 616.314 438.205 616.388Z"/><path fill="#B7AD9A" d="M501.592 613.705C504.274 612.839 529.793 613.688 533.939 613.785C531.255 614.181 525.694 614.448 523.547 615.923C523.32 615.952 519.886 616.678 520.199 615.316C520.264 615.033 520.966 614.184 520.375 613.99C519.833 613.814 517.92 613.65 517.445 613.918C516.451 614.48 515.396 614.141 514.518 614.466C514.458 614.547 514.398 614.629 514.338 614.71C514.511 614.972 514.892 615.019 515.145 615.198C514.726 615.911 503.694 616.129 503.009 615.836C502.454 614.957 504.263 614.258 501.592 613.705Z"/><path fill="#EAE5E4" d="M537.528 604.825C537.418 605.438 537.313 606.051 537.212 606.665C530.713 606.36 521.188 607.787 514.255 606.561C516.191 606.404 518.546 607.084 519.073 605.477C521.738 603.815 534.206 604.347 537.528 604.825Z"/><path fill="#423B3A" d="M519.073 605.477C521.738 603.815 534.206 604.347 537.528 604.825C534.955 606.129 522.61 605.615 519.073 605.477Z"/><path fill="#BEBBBC" d="M569.477 604.913C569.871 606.141 570.203 605.902 571.471 606.26C570.396 606.484 565.833 607.046 564.94 606.715C564.881 605.519 568.433 605.537 569.477 604.913Z"/><path fill="#888486" d="M505.381 604.946C507.781 605.536 507.867 605.505 510.376 605.592L509.35 606.769C507.905 606.525 504.688 606.601 505.381 604.946Z"/><path fill="#241F1F" d="M510.247 604.41C510.664 604.342 511.098 604.231 511.515 604.268C511.618 604.536 511.353 604.695 511.102 605.057L510.376 605.592C507.867 605.505 507.781 605.536 505.381 604.946C507.006 604.734 508.617 604.594 510.247 604.41Z"/><path fill="#EAE5E4" d="M511.102 605.057L511.441 606.558L509.35 606.769L510.376 605.592L511.102 605.057Z"/><path fill="#2B2B2A" d="M595.441 402.616C589.4 409.213 587.334 411.686 578.033 411.431C546.023 410.553 514.096 410.523 482.108 409.878C466.637 409.785 449.922 412.979 434.767 409.962C431.825 409.376 426.895 405.979 428.887 402.366C436.54 397.509 492.16 400.814 504.172 399.379C507.853 398.94 523.157 400.437 528.64 400.121L529.492 400.066C531.386 399.948 542.999 399.332 544.098 399.928C544.275 400.301 544.127 400.63 544.045 401.061L543.917 402.653L549.204 402.732C550.614 400.165 554.134 400.788 556.597 401.077C559.496 400.832 563.057 399.034 565.742 399.665C572.862 401.336 579.487 400.181 586.647 399.904C587.409 399.449 587.414 399.548 588.369 399.653C589.916 399.557 597.034 399.069 597.949 399.588C598.094 399.846 598.064 399.708 598.038 400.005C597.682 400.537 597.148 400.425 596.515 400.503C595.953 401.411 595.796 401.616 595.441 402.616Z"/><path fill="#EAE5E4" d="M588.369 399.653C589.916 399.557 597.034 399.069 597.949 399.588C598.094 399.846 598.064 399.708 598.038 400.005C597.682 400.537 597.148 400.425 596.515 400.503C595.953 401.411 595.796 401.616 595.441 402.616C589.743 402.051 583.513 403.206 578.25 402.907C569.822 402.429 557.23 403.92 549.204 402.732C550.614 400.165 554.134 400.788 556.597 401.077C559.496 400.832 563.057 399.034 565.742 399.665C572.862 401.336 579.487 400.181 586.647 399.904C587.409 399.449 587.414 399.548 588.369 399.653Z"/><path fill="#423B3A" d="M588.369 399.653C589.916 399.557 597.034 399.069 597.949 399.588C598.094 399.846 598.064 399.708 598.038 400.005C597.682 400.537 597.148 400.425 596.515 400.503C593.117 400.435 589.717 400.461 586.321 400.583C585.787 400.912 585.783 400.833 585.06 400.807C580.171 401.268 560.471 402.547 556.597 401.077C559.496 400.832 563.057 399.034 565.742 399.665C572.862 401.336 579.487 400.181 586.647 399.904C587.409 399.449 587.414 399.548 588.369 399.653Z"/><path fill="#87867B" d="M586.647 399.904C587.409 399.449 587.414 399.548 588.369 399.653C587.655 400.195 587.518 400.075 586.647 399.904Z"/><path fill="#87867B" d="M585.06 400.807C585.655 400.471 585.63 400.516 586.321 400.583C585.787 400.912 585.783 400.833 585.06 400.807Z"/><path fill="#241F1F" d="M529.492 400.066C531.386 399.948 542.999 399.332 544.098 399.928C544.275 400.301 544.127 400.63 544.045 401.061C540.648 401.022 537.241 401.191 533.832 400.926C531.679 400.217 531.875 400.314 529.492 400.066Z"/><path fill="#ACA19B" d="M533.832 400.926C537.241 401.191 540.648 401.022 544.045 401.061L543.917 402.653C538.821 402.627 535.265 401.993 530.369 401.226L530.45 401.28L530.593 401.185C531.895 401.148 532.513 401.073 533.832 400.926Z"/><path fill="#2B2B2A" d="M475.057 460.041C469.524 459.625 469.887 460.245 464.957 460.703C457.36 461.171 449.591 459.992 441.948 459.742C438.797 459.639 431.752 460.104 429.575 458.473C429.112 457.453 428.683 456.687 428.667 455.546C428.641 454.355 429.133 453.211 430.015 452.41C434.222 448.509 437.762 453.276 442.445 452.568C468.833 448.582 494.655 450.187 521.356 451.068C524.912 450.895 544.888 450.936 548.07 451.323C547.568 452.757 547.813 452.829 548.693 454.034L549.129 454.824C547.994 456.722 546.808 458.589 545.571 460.423C532.578 461.004 514.402 463.065 502.499 463.064L502.093 462.55L502.709 461.168C501.195 459.95 491.177 460.794 488.986 461.325C490.551 461.65 492.955 461.939 494.307 462.562C492.506 462.543 472.628 462.294 472.575 462.222C472.728 461.597 474.574 461.278 475.089 461.138L475.057 460.041Z"/><path fill="#423B3A" d="M476.41 461.142C477.581 461.092 478.933 460.885 480.132 460.768C484.003 461.322 484.908 461.665 488.986 461.325C490.551 461.65 492.955 461.939 494.307 462.562C492.506 462.543 472.628 462.294 472.575 462.222C472.728 461.597 474.574 461.278 475.089 461.138L476.41 461.142Z"/><path fill="#797477" d="M548.07 451.323C547.568 452.757 547.813 452.829 548.693 454.034L547.857 453.894C542.127 453.874 538.3 454.023 532.461 453.701C534.625 453.382 538.281 453.156 540.164 452.691L541.675 452.661C543.666 452.47 544.566 452.337 546.516 451.914C547.2 451.698 547.439 451.631 548.07 451.323Z"/><path fill="#EAE5E4" d="M548.07 451.323C547.568 452.757 547.813 452.829 548.693 454.034L547.857 453.894C545.647 453.043 541.852 454.231 541.675 452.661C543.666 452.47 544.566 452.337 546.516 451.914C547.2 451.698 547.439 451.631 548.07 451.323Z"/><path fill="#888486" d="M521.356 451.068C524.912 450.895 544.888 450.936 548.07 451.323C547.439 451.631 547.2 451.698 546.516 451.914C542.453 451.376 536.406 451.487 532.176 451.575C528.443 451.197 525.355 451.754 521.356 451.068Z"/><path fill="#888486" d="M477.262 459.937C478.758 460.152 478.775 460.122 480.132 460.768C478.933 460.885 477.581 461.092 476.41 461.142L477.262 459.937Z"/><path fill="#EAE5E4" d="M475.057 460.041C475.815 460.034 476.508 459.984 477.262 459.937L476.41 461.142L475.089 461.138L475.057 460.041Z"/><path fill="#2B2B2A" d="M553.091 551.039L554.064 550.826C556.121 550.349 556.871 550.329 558.924 550.817C560.793 550.863 563.195 551.135 564.923 550.892C565.82 550.678 577.767 549.327 574.119 551.829C573.535 551.841 572.951 551.847 572.367 551.848C571.035 552.18 570.727 552.332 569.457 552.913L569.105 553.263L575.113 553.044C579.674 553.182 578.262 552.049 581.687 551.789C588.343 551.284 595.457 551.734 602.143 552.033C604.903 554.144 608.37 555.884 607.624 559.692C603.809 562.481 597.315 560.54 593.021 561.142C575.368 563.615 558.235 561.83 540.479 561.848C541.62 558.162 543.568 553.973 545.328 550.541C548.451 550.545 550.033 550.677 553.091 551.039Z"/><path fill="#F4EFE4" d="M553.091 551.039L554.064 550.826C556.121 550.349 556.871 550.329 558.924 550.817C558.742 551.1 558.152 552.402 557.734 552.426C556.664 552.488 551.704 553.418 551.349 552.506C551.461 552.175 552.609 551.514 553.091 551.039Z"/><path fill="#ACA19B" d="M564.923 550.892C565.82 550.678 577.767 549.327 574.119 551.829C573.535 551.841 572.951 551.847 572.367 551.848C571.035 552.18 570.727 552.332 569.457 552.913L569.022 550.903C567.472 551.029 566.459 550.957 564.923 550.892Z"/><path fill="#423B3A" d="M569.022 550.903L569.977 550.95C571.075 550.955 572.175 550.645 572.367 551.848C571.035 552.18 570.727 552.332 569.457 552.913L569.022 550.903Z"/><path fill="#2B2B2A" d="M439.142 551.711C447.155 551.138 456.276 552.108 464.254 551.924C473.984 551.699 481.363 551.496 491.115 552.071L492.71 562.148C489.206 562.38 484.832 562.228 481.247 562.195C476.261 561.997 468.912 560.825 464.219 560.989C453.369 561.369 443.19 562.014 432.269 562.035C429.781 559.768 426.342 557.578 427.364 553.921C429.773 551.605 435.608 551.878 439.142 551.711Z"/><path fill="#241F1F" fill-opacity="0.88627452" d="M693.461 390.445C694.14 396.721 693.741 411.294 693.777 418.508L693.799 447.289C693.804 448.609 694.179 454.041 694.044 454.691C694.156 456.833 694.236 458.981 694.434 461.117C695.209 469.493 694.268 477.878 694.366 486.265L695.224 532.5C695.335 543.004 693.604 552.748 696.55 562.799C697.041 564.474 695.869 566.901 696.596 569.536L697.249 569.855L698.024 568.98C697.943 572.092 697.901 574.522 698.072 577.651L697.599 588.739L697.287 592.507C697.275 592.498 692.738 587.057 692.869 588C692.006 581.798 693.916 543.558 692.182 540.642C691.904 508.038 691.987 475.431 692.433 442.828C692.557 427.992 691.735 404.382 693.461 390.445Z"/><path fill="#2B2B2A" d="M448.088 510.967L447.329 510.863C445.627 510.638 443.315 510.336 441.827 511.106C437.296 513.447 422.937 512.639 426.818 504.455C432.47 500.794 465.568 502.168 473.438 502.564C475.66 506.099 478.005 510.006 480.333 513.436C478.403 513.434 474.967 513.681 473.401 513.009L475.499 511.479C473.885 510.554 465.597 511.121 463.504 511.67C465.689 511.912 467.872 512.177 470.051 512.465C462.745 513.243 458.4 513.243 451.068 512.998L447.455 513.12L449 512.123L447.783 511.808L448.088 510.967Z"/><path fill="#F4EFE4" d="M448.088 510.967C448.757 510.959 451.749 510.845 452.053 511.69C451.917 511.683 451.782 511.676 451.647 511.668L451.068 512.998L447.455 513.12L449 512.123L447.783 511.808L448.088 510.967Z"/><path fill="#423B3A" d="M449 512.123C449.884 511.982 450.766 511.831 451.647 511.668L451.068 512.998L447.455 513.12L449 512.123Z"/><defs><linearGradient id="gradient_1" gradientUnits="userSpaceOnUse" x1="697.89307" y1="627.10962" x2="690.39203" y2="626.60944"><stop offset="0" stop-color="#242222" stop-opacity="0.96078432"/><stop offset="1" stop-color="#292223"/></linearGradient></defs><path fill="url(#gradient_1)" d="M692.182 540.642C693.916 543.558 692.006 581.798 692.869 588C692.738 587.057 697.275 592.498 697.287 592.507C697.196 594.413 697 596.945 697.072 598.8C697.043 600.368 696.999 601.912 696.986 603.483C697.262 615.774 697.668 629.854 697.587 641.992C697.27 646.502 697.572 651.187 697.599 655.721C697.53 656.522 697.37 657.364 697.235 658.163C695.639 658.35 695.891 660.672 695.559 662.092C688.66 666.086 691.002 681.5 690.659 688.3L689.315 686.921C689.64 677.409 690.547 667.907 690.813 658.457C691.815 619.193 692.271 579.918 692.182 540.642Z"/><path fill="#241F1F" fill-opacity="0.5411765" d="M693.889 372.518C695.339 370.669 695.971 370.401 697.978 369.061C698.008 371.117 698.156 374.496 698.076 376.46C697.673 382.135 698 388.934 698.032 394.767L698.082 424.424C698.133 429.281 698.356 437.13 697.986 441.818C696.766 440.353 697.195 437.373 697.365 435.271C696.002 439.334 696.111 457.736 695.496 463.515C695.251 459.881 695.272 458.128 694.044 454.691C694.179 454.041 693.804 448.609 693.799 447.289L693.777 418.508C693.741 411.294 694.14 396.721 693.461 390.445C693.467 387.559 693.22 374.412 693.889 372.518C694.457 374.677 693.535 378.692 696.72 378.277C697.175 379.397 696.229 379.721 697.275 380.792C697.307 379.575 697.656 371.637 697.168 371.279C696.439 371.376 694.627 372.211 693.889 372.518Z"/><path fill="#2B2B2A" d="M583.616 503.51C584.918 503.349 587.75 502.934 588.872 503.714C594.454 504.327 596.676 504.27 601.974 503.23C605.103 505.323 616.083 510.386 606.492 511.889C605.089 512.108 602.287 513.106 600.994 512.598C597.543 511.241 593.783 513.263 590.25 513.492C584.739 513.979 579.125 513.704 573.6 513.588C574.871 510.545 576.015 503.507 578.919 503.459C580.484 503.494 582.05 503.511 583.616 503.51Z"/><path fill="#F4EFE4" d="M583.616 503.51C584.918 503.349 587.75 502.934 588.872 503.714C586.998 507.765 585.029 505.638 580.229 505.843C579.058 505.893 581.425 504.466 581.371 504.497C582.466 504.101 582.721 504.086 583.616 503.51Z"/><path fill="#423B3A" d="M578.919 503.459C580.484 503.494 582.05 503.511 583.616 503.51C582.721 504.086 582.466 504.101 581.371 504.497C580.249 503.92 580.12 503.865 578.919 503.459Z"/><path fill="#241F1F" d="M698.076 376.46C699.444 390.785 699.33 414.193 699.442 428.868L699.986 496.898C699.967 509.194 700.597 519.517 701.469 531.706C702.09 540.393 700.956 553.155 700.478 562.043C700.057 560.427 700.108 560.167 699.096 558.943L698.525 558.785C697.721 545.588 701.286 533.543 698.658 518.41C698.058 514.405 698.304 504.433 698.163 499.855C697.55 479.981 698.993 461.77 697.986 441.818C698.356 437.13 698.133 429.281 698.082 424.424L698.032 394.767C698 388.934 697.673 382.135 698.076 376.46Z"/><path fill="#241F1F" fill-opacity="0.78823531" d="M694.044 454.691C695.272 458.128 695.251 459.881 695.496 463.515C696.092 470.015 696.867 471.708 696.748 478.864C696.598 487.938 693.431 512.3 696.793 519.764L697.632 520.054C698.601 519.187 698.298 519.746 698.658 518.41C701.286 533.543 697.721 545.588 698.525 558.785C698.397 562.197 698.141 565.558 698.024 568.98L697.249 569.855L696.596 569.536C695.869 566.901 697.041 564.474 696.55 562.799C693.604 552.748 695.335 543.004 695.224 532.5L694.366 486.265C694.268 477.878 695.209 469.493 694.434 461.117C694.236 458.981 694.156 456.833 694.044 454.691Z"/><path fill="#241F1F" fill-opacity="0.51372552" d="M695.496 463.515C696.111 457.736 696.002 439.334 697.365 435.271C697.195 437.373 696.766 440.353 697.986 441.818C698.993 461.77 697.55 479.981 698.163 499.855C698.304 504.433 698.058 514.405 698.658 518.41C698.298 519.746 698.601 519.187 697.632 520.054L696.793 519.764C693.431 512.3 696.598 487.938 696.748 478.864C696.867 471.708 696.092 470.015 695.496 463.515Z"/><path fill="#241F1F" fill-opacity="0.96078432" d="M690.659 688.3C691.002 681.5 688.66 666.086 695.559 662.092C694.543 671.921 694.877 682.787 694.362 692.748C694.26 694.736 693.998 696.843 693.88 698.782C692.623 706.353 694.446 708.039 693.44 714.999C692.726 719.941 693.416 722.165 691.542 727.112L691.335 725.513C691.377 715.749 692.281 696.793 690.659 688.3Z"/><path fill="#251F1D" d="M699.095 646.509L700.007 647.906C699.912 666.164 699.663 684.443 699.584 702.701C699.546 711.521 701.561 721.028 700.639 730.005C700.346 732.863 700.122 732.447 698.236 734.827L698.283 733.068C699.023 730.53 698.957 721.108 698.56 718.607C698.452 709.707 698.672 702.761 698.002 693.838C698.184 692.464 698.122 692.032 698.023 690.656C698.467 681.205 697.531 667.628 698.171 659.257C698.401 657.838 698.992 648.439 699.095 646.509Z"/><path fill="#251F1D" fill-opacity="0.67450982" d="M689.228 734.052C685.862 733.385 682.607 733.52 679.148 733.241C673.978 732.825 668.905 732.008 663.757 731.594L662.941 731.533L662.514 731.071L662.316 731.451L662.518 731.504C662.275 731.393 662.033 731.281 661.791 731.17C661.949 730.997 661.805 731.107 662.476 730.9L662.241 731.239L662.591 731.322L662.946 730.899C663.548 730.922 677.212 730.019 676.735 730.408C677.16 728.708 672.699 728.975 671.809 728.804C668.714 728.207 664.687 728.486 661.516 728.529L661.224 728.295L660.589 728.437C660.525 728.39 660.462 728.342 660.398 728.294L660.421 728.235L660.798 728.291L660.884 728.1C668.048 726.962 678.005 726.567 685.246 727.405C688.003 727.724 688.459 728.484 691.493 727.615C689.877 729.664 683.857 727.665 682.7 729.763C683.082 731.09 690.203 731.605 691.503 731.198C694.735 730.187 694.564 732.549 695.627 734.326C693.699 734.301 691.09 734.299 689.228 734.052Z"/><path fill="#F4EFE4" d="M697.599 588.739C701.472 611.715 698.769 622.298 699.895 643.304C700.006 644.941 700.009 646.277 700.007 647.906L699.095 646.509C698.763 646.897 698.523 647.336 698.188 647.576C697.843 647.065 697.684 642.971 697.587 641.992C697.668 629.854 697.262 615.774 696.986 603.483C697.31 602.34 697.209 600.924 698.338 600.65C698.313 599.346 697.959 596.741 697.745 595.392L697.793 595.455C697.916 595.262 697.154 598.519 697.072 598.8C697 596.945 697.196 594.413 697.287 592.507L697.599 588.739Z"/><path fill="#797477" d="M697.599 588.739C701.472 611.715 698.769 622.298 699.895 643.304C699.577 642.225 699.361 641.631 699.261 640.502L699.181 639.499L699.081 638.493C698.905 625.591 698.828 613.614 698.338 600.65C698.313 599.346 697.959 596.741 697.745 595.392L697.793 595.455C697.916 595.262 697.154 598.519 697.072 598.8C697 596.945 697.196 594.413 697.287 592.507L697.599 588.739Z"/><path fill="#625E5F" d="M699.081 638.493L699.181 639.499L699.261 640.502C699.361 641.631 699.577 642.225 699.895 643.304C700.006 644.941 700.009 646.277 700.007 647.906L699.095 646.509C698.785 643.525 698.974 641.479 699.081 638.493Z"/><path fill="#241F1F" fill-opacity="0.68235296" d="M695.559 662.092C695.891 660.672 695.639 658.35 697.235 658.163L698.171 659.257C697.531 667.628 698.467 681.205 698.023 690.656C697.695 689.858 697.391 689.1 697.193 688.262C696.463 688.841 694.277 697.518 693.88 698.782C693.998 696.843 694.26 694.736 694.362 692.748C694.877 682.787 694.543 671.921 695.559 662.092Z"/><path fill="#241F1F" fill-opacity="0.51764709" d="M693.88 698.782C694.277 697.518 696.463 688.841 697.193 688.262C697.391 689.1 697.695 689.858 698.023 690.656C698.122 692.032 698.184 692.464 698.002 693.838C692.422 697.838 695.477 705.492 694.441 711.861C694.015 717.274 694.98 719.2 696.181 724.345C694.586 727.904 693.698 729.001 696.329 732.294C696.579 732.608 697.64 731.361 697.868 731.234C698.11 731.663 698.177 732.575 698.283 733.068L698.236 734.827C697.018 734.743 696.842 734.665 695.627 734.326C694.564 732.549 694.735 730.187 691.503 731.198C690.203 731.605 683.082 731.09 682.7 729.763C683.857 727.665 689.877 729.664 691.493 727.615L691.542 727.112C693.416 722.165 692.726 719.941 693.44 714.999C694.446 708.039 692.623 706.353 693.88 698.782Z"/><path fill="#241F1F" fill-opacity="0.18039216" d="M694.441 711.861C695.477 705.492 692.422 697.838 698.002 693.838C698.672 702.761 698.452 709.707 698.56 718.607C695.675 715.35 695.63 716.09 694.441 711.861Z"/><path fill="#241F1F" fill-opacity="0.47450981" d="M694.441 711.861C695.63 716.09 695.675 715.35 698.56 718.607C698.957 721.108 699.023 730.53 698.283 733.068C698.177 732.575 698.11 731.663 697.868 731.234C697.64 731.361 696.579 732.608 696.329 732.294C693.698 729.001 694.586 727.904 696.181 724.345C694.98 719.2 694.015 717.274 694.441 711.861Z"/><path fill="#2B2B2A" d="M608.29 450.824C609.962 451.479 610.549 452.774 610.769 454.491C611.318 458.774 607.927 458.531 604.523 458.829C604.14 458.784 601.838 458.714 601.711 458.246C602.058 456.81 606.883 452.238 608.29 450.824Z"/><path fill="#B7AD9A" d="M691.041 725.514C690.371 717.686 691.941 710.382 690.118 702.749C689.562 700.421 688.751 688.844 689.315 686.921L690.659 688.3C692.281 696.793 691.377 715.749 691.335 725.513L691.041 725.514Z"/><path fill="#2F5FD0" fill-opacity="0.98431373" d="M692.618 360.852C697.06 362.488 697.362 357.679 699.857 358.624C697.236 361.829 692.598 366.042 688.488 366.726C685.277 367.261 692.295 361.085 692.618 360.852Z"/><path fill="#797477" d="M698.525 558.785L699.096 558.943C700.108 560.167 700.057 560.427 700.478 562.043C700.579 565.856 700.221 567.463 699.753 571.132C699.755 571.671 699.849 572.275 699.226 572.48C698.898 572.357 699.008 572.396 698.739 572.146C698.334 573.911 698.45 575.559 698.072 577.651C697.901 574.522 697.943 572.092 698.024 568.98C698.141 565.558 698.397 562.197 698.525 558.785Z"/><path fill="#2B2B2A" d="M699.096 558.943C700.108 560.167 700.057 560.427 700.478 562.043C700.579 565.856 700.221 567.463 699.753 571.132C699.331 567.065 699.789 563.532 699.096 558.943Z"/><path fill="#251F1D" fill-opacity="0.1882353" d="M693.889 372.518C694.627 372.211 696.439 371.376 697.168 371.279C697.656 371.637 697.307 379.575 697.275 380.792C696.229 379.721 697.175 379.397 696.72 378.277C693.535 378.692 694.457 374.677 693.889 372.518Z"/><path fill="#888486" fill-opacity="0.67843139" d="M697.587 641.992C697.684 642.971 697.843 647.065 698.188 647.576C698.523 647.336 698.763 646.897 699.095 646.509C698.992 648.439 698.401 657.838 698.171 659.257C698.008 657.954 697.871 657.008 697.599 655.721C697.572 651.187 697.27 646.502 697.587 641.992Z"/><path fill="#888486" d="M328.495 715.656C332.345 715.504 334.432 714.972 338.704 715.006C337.783 715.295 336.867 715.602 335.958 715.928C336.903 715.967 337.847 716.014 338.791 716.069C337.08 716.49 329.086 717.439 328.495 715.656Z"/><path fill="#F4EFE4" d="M338.791 716.069C337.08 716.49 329.086 717.439 328.495 715.656C331.175 716.029 333.267 716.151 335.958 715.928C336.903 715.967 337.847 716.014 338.791 716.069Z"/><path fill="#797477" d="M346.017 700.505C344.542 700.537 332.842 700.69 332.523 700.098C333.082 699.181 340.921 699.434 342.246 699.543C343.549 699.908 344.704 700.206 346.017 700.505Z"/><path fill="#ACA19B" d="M347.689 732.532C346.324 732.719 340.053 733.214 339.175 732.689L339.236 732.707L339.459 732.38C341.101 731.845 349.57 731.437 351.391 731.459C350.1 731.798 348.965 732.135 347.689 732.532Z"/><path fill="#423B3A" d="M458.976 363.978L459.085 363.874C459.893 363.095 459.989 362.826 460.945 362.533C462.72 362.877 464.279 363.054 466.045 363.503C464.198 363.952 460.651 365.037 458.976 363.978Z"/><path fill="#BEBBBC" fill-opacity="0.9137255" d="M697.072 598.8C697.154 598.519 697.916 595.262 697.793 595.455L697.745 595.392C697.959 596.741 698.313 599.346 698.338 600.65C697.209 600.924 697.31 602.34 696.986 603.483C696.999 601.912 697.043 600.368 697.072 598.8Z"/><path fill="#626BA1" d="M677.788 364.586C678.406 364.26 680.569 362.865 681.229 363.227C681.37 363.693 678.942 365.688 678.564 366.042L677.788 364.586Z"/><path fill="#B7AD9A" d="M447.783 511.808L449 512.123L447.455 513.12C446.744 512.785 445.955 512.856 447.191 512.162L447.783 511.808Z"/><path fill="#625E5F" fill-opacity="0.50980395" d="M697.599 655.721C697.871 657.008 698.008 657.954 698.171 659.257L697.235 658.163C697.37 657.364 697.53 656.522 697.599 655.721Z"/><path fill="#241F1F" fill-opacity="0.75686276" d="M677.673 318.29C678.126 316.499 678.045 314.126 679.63 313.302L680.155 314.124C681.063 315.606 683.852 318.142 685.188 319.843C687.356 319.34 689.262 318.743 691.412 318.265C696.974 321.052 693.367 326.109 694.985 331.747C695.179 332.423 694.009 338.191 693.863 339.744C693.285 334.264 693.593 325.868 693.709 320.193C690.8 320.299 687.891 320.29 684.975 320.367C685.244 330.684 685.164 336.079 685 346.273L677.024 350.7C677.294 340.158 677.245 328.587 677.673 318.29ZM682.433 346.04C685.461 345.478 684.544 344.122 684.489 340.895C683.652 338.133 679.323 339.553 679.208 341.267C678.95 345.121 677.764 347.481 682.433 346.04Z"/><path fill="#251F1D" fill-opacity="0.050980393" d="M682.433 346.04C677.764 347.481 678.95 345.121 679.208 341.267C679.323 339.553 683.652 338.133 684.489 340.895C683.083 341.879 678.619 345.345 682.433 346.04Z"/><path fill="#251F1D" fill-opacity="0.0078431377" d="M682.433 346.04C678.619 345.345 683.083 341.879 684.489 340.895C684.544 344.122 685.461 345.478 682.433 346.04Z"/><path fill="#241F1F" fill-opacity="0.84313726" d="M664.972 290.258C666.355 294.295 665.994 298.767 668.482 302.112C669.735 302.651 669.331 302.781 670.172 302.466L670.529 303.295L670.236 304.742C669.795 306.499 669.989 314.908 669.943 317.033C669.835 322.017 669.017 350.997 667.206 353.762C665.42 353.914 666.159 354.16 664.848 353.243C663.068 349.718 664.639 340.651 664.744 336.244C665.022 324.568 663.222 312.669 665.802 301.272C666.193 299.544 664.371 294.006 664.972 290.258Z"/><path fill="#251F1D" fill-opacity="0.047058824" d="M680.913 310.68C681.059 311.232 681.14 311.726 681.225 312.29C682.434 312.184 683.373 313.485 684.786 313.901C691.32 315.822 686.549 316.744 691.412 318.265C689.262 318.743 687.356 319.34 685.188 319.843C683.852 318.142 681.063 315.606 680.155 314.124L679.63 313.302C680.39 312.058 680.481 311.985 680.913 310.68Z"/><path fill="#251F1D" fill-opacity="0.83529413" d="M318.835 699.927C319.843 698.371 320.131 695.941 321.762 695.627L322.305 695.926C322.703 697.388 322.2 698.897 321.942 700.334L321.4 701.117C318.625 705.048 318.078 706.274 316.372 710.727C316.709 706.414 319.534 702.394 318.835 699.927Z"/></svg>